<?xml version="1.0" encoding="utf-8"?>
<!-- Generator: Adobe Illustrator 16.0.0, SVG Export Plug-In . SVG Version: 6.00 Build 0)  -->
<!DOCTYPE svg PUBLIC "-//W3C//DTD SVG 1.1//EN" "http://www.w3.org/Graphics/SVG/1.1/DTD/svg11.dtd">
<svg version="1.1" id="Layer_1" xmlns="http://www.w3.org/2000/svg" xmlns:xlink="http://www.w3.org/1999/xlink" x="0px" y="0px"
	 width="1154.85px" height="856.199px" viewBox="0 0 1154.85 856.199" enable-background="new 0 0 1154.85 856.199"
	 xml:space="preserve">
<path fill-rule="evenodd" clip-rule="evenodd" fill="#FFFFFF" d="M646.45,89.75l-4.8,1.55h-0.1
	c-27.267,9.233-54.55,18.45-81.851,27.65C508.3,101.583,456.867,84.2,405.4,66.8l0.05,0.1c-1.9-0.7-3.817-1.35-5.75-1.95l0.15,0.1
	l-15.9-5.5L559.9,0l43.851,14.9l0.05,0.1l131.85,44.55l-88.95,30.1C646.6,89.65,646.517,89.684,646.45,89.75z M649.15,99.9
	c0.2-0.067,0.417-0.134,0.65-0.2L743.7,67.85V268.1l-178.75,60.5V128.25c26.601-9,53.233-17.983,79.9-26.95L649.15,99.9z
	 M554.45,128.25V328.5L375.9,268.45V67.95c3.1,1.033,6.184,2.083,9.25,3.15l11.3,3.85l0.1,0.1c0.466,0.1,0.933,0.233,1.4,0.4l2,0.65
	c0.7,0.233,1.4,0.467,2.1,0.7l5.85,2c0.3,0.1,0.634,0.217,1,0.35c0.467,0.1,0.967,0.25,1.5,0.45l21.95,7.4
	c35.367,11.967,70.75,23.934,106.15,35.9C543.833,124.667,549.15,126.45,554.45,128.25z M651.95,310.3v152.75l-0.399,0.35
	l-86.601,29.25V339.8L651.95,310.3z M828.3,742.4c17.366,0,30.3,2.366,38.8,7.1c10.4,5.934,16,13.5,16.8,22.7v77.6h-25.2v-13.1
	c-5.5,9.467-15.633,14.533-30.399,15.2c-1.8,0.066-3.583,0.1-5.351,0.1c-14.033,0-25.133-1.649-33.3-4.95
	c-11.399-6.1-17.1-16.066-17.1-29.899c0-17.434,7.316-27.333,21.95-29.7c6.366-1.667,16.916-2.5,31.649-2.5
	c2.967,0,6.101,0.05,9.4,0.15c5.733,0.133,10.333,0.199,13.8,0.199c4.333,0,6.8-0.116,7.4-0.35v-8.6
	c-0.067-3.601-1.051-5.917-2.95-6.95c-4.267-2.467-12.767-3.7-25.5-3.7c-10.167,0-17.4,0.917-21.7,2.75
	c-2.633,1.133-6.5,4.15-11.6,9.05l-21.65-9.35c5.967-10,13.533-16.917,22.7-20.75C803.85,744.067,814.6,742.4,828.3,742.4z
	 M913.25,747.75h25.6v13.15c7.033-11.134,18.333-16.7,33.9-16.7c15.732,0,28.05,4.617,36.949,13.85
	c8.467,8.867,12.7,22.434,12.7,40.7h-27.5c0-11-2-18.566-6-22.7c-4.1-4.199-11.116-6.3-21.05-6.3c-9.633,0-16.533,2.033-20.7,6.101
	c-4.167,4-6.283,11.399-6.35,22.199v51.75h-27.55V747.75z M1098.25,744.101c20,0,34.416,4.433,43.25,13.3
	c0.6,0.566,1.166,1.183,1.699,1.85c7.768,8.9,11.65,22.033,11.65,39.4v9.149h-85.4c0.967,13.967,10.567,21.283,28.801,21.95
	c16.433,0,26.816-4.533,31.149-13.6l23.601,8.8c-2.167,5.9-5.434,10.867-9.801,14.9c-9.633,9-24.616,13.5-44.949,13.5
	c-19.934,0-34.317-4.45-43.15-13.351c-8.967-8.866-13.45-22.649-13.45-41.35c0-18.601,4.483-32.351,13.45-41.25
	C1063.933,748.533,1078.317,744.101,1098.25,744.101z M497.8,706.9V809.3c0.2,11.167,5.816,16.75,16.85,16.75
	c4.167,0,7.6-0.35,10.3-1.05v24.8c-3.667,0.567-7.9,0.851-12.7,0.851c-7.933,0-15.6-1.184-23-3.55
	c-11.966-5.867-18.3-19.134-19-39.801V706.9H497.8z M559.65,706.9l37.2,101.5l37.1-101.5h30.45l37.05,101.5l37.101-101.5h30.35
	L716.65,849.8H686.25L649.2,748.351L612,849.8H581.65L529.3,706.9H559.65z M835,803.75c-2.167-0.033-4.233-0.05-6.2-0.05
	c-9.2,0-15.917,0.533-20.15,1.6c-5.967,1.467-8.95,5.417-8.95,11.851c1.033,8.267,9.967,12.399,26.801,12.399h1.8
	c16.333-1.5,25.816-5.017,28.45-10.55v-15.25c-0.733,0.134-2.9,0.2-6.5,0.2C846.65,803.95,841.567,803.884,835,803.75z
	 M1069.45,789.601h57.7c-0.667-14.101-10.3-21.4-28.899-21.9C1079.683,768.2,1070.083,775.5,1069.45,789.601z M554.45,492.65
	l-178.55-60.5V279.6l178.55,59.95V492.65z M376.7,62c-0.133,0.167-0.2,0.333-0.2,0.5l-0.6-0.25L376.7,62z M174.15,747.75V849.8
	H146.6V747.75H174.15z M146.6,706.9h27.55v27.55H146.6V706.9z M228.6,747.75l27.15,33.45l27.05-33.45h36.75l-45.4,51l45.4,51.05
	H282.8l-27.05-33.3l-27.15,33.3h-36.75l45.5-51.05l-45.5-51H228.6z M432.25,757.4c8.934,8.899,13.4,22.649,13.4,41.25v9.149H360.2
	c0.966,13.967,10.566,21.283,28.8,21.95c16.434,0,26.833-4.533,31.2-13.6l23.55,8.8c-6.933,18.934-25.183,28.4-54.75,28.4
	c-19.933,0-34.316-4.45-43.15-13.351c-8.934-8.866-13.4-22.649-13.4-41.35c0-18.601,4.466-32.351,13.4-41.25
	c8.833-8.867,23.217-13.3,43.15-13.3C409,744.101,423.417,748.533,432.25,757.4z M70.55,706.9l3.15,0.05
	c15.333,0.467,26.983,4.184,34.95,11.15c8.934,7.833,13.567,19.683,13.9,35.55c0,0.566,0,1.149,0,1.75c0,2.233-0.083,4.399-0.25,6.5
	v0.1c-0.034,0.101-0.05,0.217-0.05,0.351c-0.066,0.699-0.133,1.383-0.2,2.05c0,0.033,0,0.1,0,0.2l-0.05,0.05
	c-1.133,9.7-4.15,17.566-9.05,23.6c-1.067,1.333-2.2,2.567-3.4,3.7c-0.233,0.2-0.45,0.4-0.65,0.6c-0.1,0.101-0.183,0.167-0.25,0.2
	c-1.6,1.333-3.333,2.567-5.2,3.7c-0.4,0.2-0.8,0.417-1.2,0.65c-0.167,0.1-0.367,0.217-0.6,0.35c-0.4,0.2-0.833,0.4-1.3,0.6
	c-3.3,1.601-7.017,2.867-11.15,3.801c-0.534,0.1-1.083,0.217-1.65,0.35c-0.233,0.033-0.483,0.083-0.75,0.15
	c-3.167,0.6-6.55,1-10.15,1.199c-0.566,0.067-1.133,0.117-1.7,0.15c-1.3,0.033-2.65,0.05-4.05,0.05l-42.3,0.15V849.8H0V706.9h70.3
	C70.4,706.9,70.483,706.9,70.55,706.9z M95.85,753.45c0-0.1,0-0.217,0-0.35c-0.033-0.033-0.033-0.067,0-0.101
	c-0.133-3.433-0.733-6.433-1.8-9c-3.167-7.366-10.45-11.083-21.85-11.149H28.6v45.35h43.9c15.034-0.833,22.8-8.283,23.3-22.35
	c0-0.033,0-0.067,0-0.101c0-0.066,0.017-0.149,0.05-0.25c0-0.399,0-0.833,0-1.3C95.85,753.967,95.85,753.717,95.85,753.45z
	 M417.95,789.601c-0.7-14.101-10.35-21.4-28.95-21.9c-18.566,0.5-28.167,7.8-28.8,21.9H417.95z"/>
</svg>
