<?xml version="1.0" encoding="utf-8"?>
<!-- Generator: Adobe Illustrator 16.0.0, SVG Export Plug-In . SVG Version: 6.00 Build 0)  -->
<!DOCTYPE svg PUBLIC "-//W3C//DTD SVG 1.1//EN" "http://www.w3.org/Graphics/SVG/1.1/DTD/svg11.dtd">
<svg version="1.1" id="Layer_1" xmlns="http://www.w3.org/2000/svg" xmlns:xlink="http://www.w3.org/1999/xlink" x="0px" y="0px"
	 width="1742.2px" height="282.399px" viewBox="0 0 1742.2 282.399" enable-background="new 0 0 1742.2 282.399"
	 xml:space="preserve">
<path fill-rule="evenodd" clip-rule="evenodd" fill="#00A4EA" d="M1389.4,109.75c12.733,7.267,19.6,16.55,20.6,27.85v95.15h-30.899
	V216.7c-6.733,11.6-19.15,17.8-37.25,18.6c-2.233,0.066-4.434,0.1-6.601,0.1c-17.2,0-30.8-2.017-40.8-6.05
	c-13.967-7.467-20.95-19.684-20.95-36.649c0-21.367,8.967-33.5,26.9-36.4c7.8-2.033,20.733-3.05,38.8-3.05
	c3.633,0,7.467,0.05,11.5,0.149c7.033,0.167,12.684,0.25,16.95,0.25c5.3,0,8.316-0.133,9.05-0.399V142.7
	c-0.066-4.434-1.267-7.284-3.6-8.551c-5.233-3-15.65-4.5-31.25-4.5c-12.467,0-21.351,1.117-26.65,3.35
	c-3.2,1.399-7.934,5.1-14.2,11.1l-26.55-11.45c7.333-12.266,16.617-20.75,27.85-25.45c9.567-4.1,22.75-6.15,39.551-6.15
	C1363.15,101.05,1379,103.95,1389.4,109.75z M1306.75,192.7c1.3,10.133,12.25,15.199,32.851,15.199h2.25
	c20.033-1.833,31.649-6.133,34.85-12.899v-18.7c-0.9,0.167-3.55,0.25-7.95,0.25c-4.433,0-10.667-0.083-18.7-0.25
	c-2.666-0.066-5.199-0.1-7.6-0.1c-11.3,0-19.533,0.649-24.7,1.949C1310.417,179.983,1306.75,184.833,1306.75,192.7z M1140.9,57.55
	l45.45,124.45L1231.8,57.55h37.2l-64.05,175.2h-37.25l-45.45-124.4l-45.6,124.4h-37.2l-64.2-175.2h37.25L1058.101,182l45.449-124.45
	H1140.9z M957.3,203.6c5.134,0,9.351-0.416,12.65-1.25v30.4c-4.5,0.7-9.684,1.05-15.55,1.05c-9.733,0-19.134-1.45-28.2-4.35
	c-14.7-7.2-22.467-23.467-23.3-48.801V57.55h33.75v125.5C936.917,196.75,943.8,203.6,957.3,203.6z M803.3,132.05
	c-22.767,0.634-34.55,9.6-35.35,26.9h70.8C837.917,141.649,826.1,132.684,803.3,132.05z M841.5,191.5l28.9,10.75
	c-8.5,23.233-30.867,34.85-67.1,34.85c-24.467,0-42.117-5.467-52.95-16.399c-10.933-10.867-16.4-27.75-16.4-50.65
	c0-22.833,5.467-39.7,16.4-50.6c10.833-10.867,28.483-16.3,52.95-16.3c24.5,0,42.167,5.433,53,16.3
	c10.933,10.9,16.4,27.767,16.4,50.6v11.2H767.95c1.2,17.133,12.983,26.1,35.35,26.899C823.434,208.149,836.167,202.6,841.5,191.5z
	 M1742.2,181.25h-104.75c1.2,17.133,12.983,26.1,35.35,26.899c20.134,0,32.851-5.55,38.15-16.649l28.95,10.75
	c-2.667,7.233-6.667,13.333-12,18.3c-11.8,11.033-30.167,16.55-55.101,16.55c-24.467,0-42.116-5.467-52.949-16.399
	c-10.967-10.867-16.45-27.75-16.45-50.65c0-22.833,5.483-39.7,16.45-50.6c10.833-10.867,28.482-16.3,52.949-16.3
	c24.5,0,42.167,5.433,53,16.3c0.733,0.7,1.434,1.45,2.101,2.25c9.533,10.933,14.3,27.05,14.3,48.35V181.25z M1672.8,132.05
	c-22.767,0.634-34.55,9.6-35.35,26.9h70.75C1707.4,141.649,1695.601,132.684,1672.8,132.05z M1518.9,103.25
	c19.3,0,34.417,5.667,45.35,17c10.367,10.866,15.55,27.5,15.55,49.899h-33.75c0-13.5-2.449-22.783-7.35-27.85
	c-5-5.134-13.6-7.7-25.8-7.7c-11.8,0-20.25,2.5-25.351,7.5c-5.133,4.9-7.732,13.967-7.8,27.2v63.45H1446V107.6h31.351v16.15
	C1485.983,110.083,1499.833,103.25,1518.9,103.25z M476.6,117c0,2.733-0.1,5.4-0.3,8v0.1c-0.034,0.134-0.05,0.284-0.05,0.45
	c-0.1,0.833-0.183,1.667-0.25,2.5c0,0.033,0,0.117,0,0.25l-0.05,0.05c-1.4,11.867-5.1,21.517-11.1,28.95
	c-1.3,1.6-2.683,3.1-4.15,4.5c-0.3,0.233-0.583,0.483-0.85,0.75c-0.1,0.1-0.2,0.184-0.3,0.25c-1.934,1.634-4.05,3.15-6.35,4.55
	c-0.5,0.233-0.983,0.5-1.45,0.8c-0.233,0.101-0.483,0.233-0.75,0.4c-0.5,0.267-1.033,0.517-1.6,0.75
	c-4.067,1.967-8.617,3.517-13.65,4.65c-0.667,0.133-1.35,0.283-2.05,0.449c-0.267,0.034-0.566,0.084-0.9,0.15
	c-3.9,0.733-8.05,1.233-12.45,1.5c-0.7,0.066-1.4,0.116-2.1,0.15c-1.6,0.066-3.25,0.1-4.95,0.1l-51.85,0.15v56.3H326.4V57.55h86.15
	c0.133,0,0.233,0,0.3,0l3.85,0.05c18.833,0.567,33.133,5.134,42.9,13.7c10.934,9.566,16.6,24.083,17,43.55
	C476.6,115.55,476.6,116.267,476.6,117z M539.85,107.6v125.15H506.1V107.6H539.85z M443.85,117.4c0-0.067,0.017-0.15,0.05-0.25
	c0-0.5,0-1.034,0-1.6c0-0.3,0-0.617,0-0.95c0-0.133,0-0.267,0-0.4c-0.034-0.033-0.034-0.083,0-0.15c-0.167-4.2-0.9-7.867-2.2-11
	c-3.9-9.066-12.833-13.633-26.8-13.7h-53.45v55.601h53.8c18.434-1.034,27.967-10.167,28.6-27.4
	C443.85,117.517,443.85,117.466,443.85,117.4z M157.7,174.149V264.5l-0.25,0.2L105,282.399v-90.55h0.15L157.7,174.149z M639.9,148.6
	l33.15-41h45.1l-55.7,62.55l55.7,62.601h-45.1l-33.15-40.851l-33.25,40.851h-45.1l55.8-62.601l-55.8-62.55h45.1L639.9,148.6z"/>
<path fill-rule="evenodd" clip-rule="evenodd" fill="#00D580" d="M105,191.85V71.1l105.1-35.55v120.7l-52.4,17.899l-52.55,17.7H105z
	 M539.85,91.3H506.1V57.55h33.75V91.3z"/>
<polygon fill-rule="evenodd" clip-rule="evenodd" fill="#00AA66" points="105,191.85 0,156.5 0,35.55 105,71.1 "/>
<polygon fill-rule="evenodd" clip-rule="evenodd" fill="#0078AA" points="105,191.85 105,282.399 0,246.85 0,156.5 "/>
<polygon fill-rule="evenodd" clip-rule="evenodd" fill="#00FF96" points="0,35.55 105.1,0 210.1,35.55 105,71.1 "/>
</svg>
