<?xml version="1.0"?>
<svg xmlns="http://www.w3.org/2000/svg" xmlns:xlink="http://www.w3.org/1999/xlink" version="1.1" id="Capa_1" x="0px" y="0px" viewBox="0 0 472.11 472.11" style="enable-background:new 0 0 472.11 472.11;" xml:space="preserve" width="512px" height="512px"><g><g>
	<g>
		<g>
			<path d="M296,144.055h-40v-60.6l3.2-4.264c5.733-7.069,16.111-8.153,23.18-2.42c0.888,0.72,1.699,1.531,2.42,2.42l4.8,6.4     c2.647,3.538,7.66,4.26,11.198,1.613c3.538-2.647,4.26-7.66,1.613-11.198c-0.004-0.005-0.007-0.01-0.011-0.015l-4.8-6.4     c-10.604-14.138-30.661-17.004-44.8-6.4c-2.426,1.819-4.581,3.974-6.4,6.4l-4.8,6.4c-1.039,1.385-1.6,3.069-1.6,4.8v71.264     c0,4.418,3.582,8,8,8h48c4.418,0,8-3.582,8-8S300.418,144.055,296,144.055z" data-original="#000000" class="active-path" data-old_color="#19b393" fill="#19b393"/>
			<path d="M248,176.055h-48c-4.418,0-8,3.582-8,8s3.582,8,8,8h40v72c0,4.418,3.582,8,8,8s8-3.582,8-8v-80     C256,179.637,252.418,176.055,248,176.055z" data-original="#000000" class="active-path" data-old_color="#19b393" fill="#19b393"/>
			<path d="M408,168.055c0-92.784-75.216-168-168-168C147.265,0.001,72.044,75.134,71.99,167.869     c-0.038,65.172,37.639,124.479,96.65,152.138l45.704,45.704c1.5,1.5,3.534,2.344,5.656,2.344     c1.052,0.003,2.093-0.203,3.064-0.608c2.989-1.239,4.937-4.157,4.936-7.392v-24.504c4.224,0.336,8.16,0.504,12,0.504     C332.784,336.055,408,260.839,408,168.055z M240,320.055c-6.357-0.042-12.706-0.483-19.008-1.32     c-2.275-0.266-4.557,0.437-6.288,1.936c-1.72,1.52-2.705,3.705-2.704,6v14.072l-33.048-33.048c-0.668-0.668-1.451-1.21-2.312-1.6     c-76.105-35.114-109.334-125.274-74.221-201.379C137.533,28.611,227.694-4.618,303.798,30.496     c76.105,35.114,109.334,125.274,74.221,201.379C353.184,285.702,299.28,320.141,240,320.055z" data-original="#000000" class="active-path" data-old_color="#19b393" fill="#19b393"/>
			<path d="M394.944,352.615c-3.059-1.217-6.551-0.436-8.8,1.968l-24,25.6c-3.14,3.108-3.165,8.174-0.057,11.314     c3.108,3.14,8.174,3.165,11.314,0.057c0.141-0.14,0.277-0.285,0.407-0.435L384,380.287v11.768c0,4.418,3.582,8,8,8s8-3.582,8-8     v-32C400.001,356.773,397.996,353.823,394.944,352.615z" data-original="#000000" class="active-path" data-old_color="#19b393" fill="#19b393"/>
			<path d="M418.344,370.399l-8,8c-3.178,3.07-3.266,8.134-0.196,11.312c3.07,3.178,8.134,3.266,11.312,0.196     c0.066-0.064,0.132-0.13,0.196-0.196l8-8c3.07-3.178,2.982-8.242-0.196-11.312C426.36,367.404,421.444,367.404,418.344,370.399z" data-original="#000000" class="active-path" data-old_color="#19b393" fill="#19b393"/>
			<path d="M434.265,320.679c-10.528-5.676-22.304-8.64-34.265-8.624c-39.746,0.044-71.956,32.254-72,72v72     c0.001,4.418,3.583,7.999,8.002,7.998c1.451,0,2.875-0.395,4.118-1.143l25.808-15.48c35.002,18.871,78.674,5.794,97.544-29.208     C482.343,383.222,469.266,339.55,434.265,320.679z M400,440.055c-10.571-0.007-20.922-3.018-29.848-8.68     c-2.55-1.622-5.797-1.668-8.392-0.12L344,441.927v-57.872c0-30.928,25.072-56,56-56c30.928,0,56,25.072,56,56     C456,414.983,430.928,440.055,400,440.055z" data-original="#000000" class="active-path" data-old_color="#19b393" fill="#19b393"/>
			<path d="M128,344.055H48c-26.499,0.026-47.974,21.501-48,48v8c0.026,26.499,21.501,47.974,48,48h61.336l29.864,22.4     c1.385,1.039,3.069,1.6,4.8,1.6c4.418,0,8-3.582,8-8v-22.472c14.839-8.567,23.985-24.394,24-41.528v-8     C175.974,365.556,154.499,344.082,128,344.055z M160,400.055c-0.013,12.712-7.549,24.211-19.2,29.296     c-2.914,1.272-4.798,4.149-4.8,7.328v11.376l-19.2-14.4c-1.385-1.039-3.069-1.6-4.8-1.6H48c-17.673,0-32-14.327-32-32v-8     c0-17.673,14.327-32,32-32h80c17.673,0,32,14.327,32,32V400.055z" data-original="#000000" class="active-path" data-old_color="#19b393" fill="#19b393"/>
			<path d="M48,392.055H32v16c0,4.418,3.582,8,8,8h16v-16h-8V392.055z" data-original="#000000" class="active-path" data-old_color="#19b393" fill="#19b393"/>
			<rect x="64" y="392.055" width="16" height="24" data-original="#000000" class="active-path" data-old_color="#19b393" fill="#19b393"/>
			<rect x="88" y="376.055" width="16" height="40" data-original="#000000" class="active-path" data-old_color="#19b393" fill="#19b393"/>
			<rect x="112" y="400.055" width="16" height="16" data-original="#000000" class="active-path" data-old_color="#19b393" fill="#19b393"/>
			<rect x="112" y="376.055" width="32" height="16" data-original="#000000" class="active-path" data-old_color="#19b393" fill="#19b393"/>
		</g>
	</g>
</g></g> </svg>
